<svg class="typst-doc" viewBox="0 0 595.2755905511812 341.9496686291534" width="595.2755905511812pt" height="341.9496686291534pt" xmlns="http://www.w3.org/2000/svg" xmlns:xlink="http://www.w3.org/1999/xlink" xmlns:h5="http://www.w3.org/1999/xhtml">
    <g>
        <g transform="translate(55.246923764163455 14.173228346456693)">
            <g class="typst-group">
                <g>
                    <g transform="translate(371.3876095440749 56.452316000767844)">
                        <path class="typst-shape" fill="none" stroke="#ffffff" stroke-width="1" stroke-linecap="butt" stroke-linejoin="miter" stroke-miterlimit="4" d="M 108.07829 32.737606 C 94.85785 4.386266 61.088947 -7.904609 32.737606 5.315838 C 4.386266 18.536285 -7.904609 52.305187 5.315838 80.656525 C 18.536285 109.007866 52.305187 121.298744 80.656525 108.07829 C 109.007866 94.85785 121.298744 61.088947 108.07829 32.737606 Z "/>
                    </g>
                    <g transform="translate(228.58333577384258 139.67011057699224)">
                        <path class="typst-shape" fill="none" stroke="#ffffff" stroke-width="1" stroke-linecap="butt" stroke-linejoin="miter" stroke-miterlimit="4" d="M 86.46264 26.190084 C 75.88628 3.509013 48.87116 -6.3236876 26.190084 4.2526703 C 3.509013 14.829028 -6.3236876 41.84415 4.2526703 64.52522 C 14.829028 87.20629 41.84415 97.038994 64.52522 86.46264 C 87.20629 75.88628 97.038994 48.87116 86.46264 26.190084 Z "/>
                    </g>
                    <g transform="translate(63.100235307854405 200.20907845746075)">
                        <path class="typst-shape" fill="none" stroke="#ffffff" stroke-width="1" stroke-linecap="butt" stroke-linejoin="miter" stroke-miterlimit="4" d="M 108.07829 32.737606 C 94.85785 4.386266 61.088947 -7.904609 32.737606 5.315838 C 4.386266 18.536285 -7.904609 52.305187 5.315838 80.656525 C 18.536285 109.007866 52.305187 121.298744 80.656525 108.07829 C 109.007866 94.85785 121.298744 61.088947 108.07829 32.737606 Z "/>
                    </g>
                    <g transform="translate(0 0)">
                        <path class="typst-shape" fill="none" stroke="#ffffff" stroke-width="1" stroke-linecap="butt" stroke-linejoin="miter" stroke-miterlimit="4" d="M 0 0 L 435.43494 56.93497 L 435.43494 56.93497 C 460.43204 60.20345 480.26794 79.58556 484.11395 104.50033 C 487.95996 129.41508 474.89203 153.87646 452.04413 164.53061 L 452.04413 164.53061 L 143.75676 308.28738 L 143.75676 308.28738 C 171.46677 295.366 183.93906 262.79922 171.94904 234.67368 C 159.95901 206.54813 127.82635 192.99661 99.31656 204.04193 L 99.31656 204.04193 L 257.5564 142.73639 L 257.5564 142.73639 C 274.41617 136.20454 293.54498 140.3107 306.23877 153.18646 C 318.93256 166.06221 322.76602 185.24754 315.99487 202.01263 C 309.22372 218.77773 293.14163 229.9195 275.06638 230.36813 L 275.06638 230.36813 L 171.17853 232.94669 "/>
                    </g>
                </g>
            </g>
        </g>
    </g>
</svg>
